Land_normalized_Motion_pl05
version=1
nRows=21
nColumns=43
inDegrees=yes
endheader
time		pelvis_tilt		pelvis_list		pelvis_rotation		pelvis_tx		pelvis_ty		pelvis_tz		hip_flexion_r		hip_adduction_r		hip_rotation_r		knee_angle_r		ankle_angle_r		subtalar_angle_r		mtp_angle_r		hip_flexion_l		hip_adduction_l		hip_rotation_l		knee_angle_l		ankle_angle_l		subtalar_angle_l		mtp_angle_l		lumbar_extension		lumbar_bending		lumbar_rotation		neck_flexion		neck_lateral_bending		neck_rotation		arm_flex_r		arm_add_r		arm_rot_r		elbow_flex_r		pro_sup_r		wrist_flex_r		wrist_dev_r		hand_finger_flex_r		arm_flex_l		arm_add_l		arm_rot_l		elbow_flex_l		pro_sup_l		wrist_flex_l		wrist_dev_l		hand_finger_flex_l		
1.521667		0.802163		4.516917		85.499024		-0.013843		0.642064		0.517439		71.496103		3.046442		0.847785		-108.582095		7.589727		-3.404776		14.695640		68.480932		-6.152717		3.421586		-107.328147		9.302134		9.465499		28.352978		-52.794576		0.243290		-0.461152		-3.869232		-4.371543		5.324640		-18.393370		-26.092747		-17.982490		86.420774		142.840939		-1.026880		-2.687848		-32.546979		-24.096442		-20.006725		-38.004824		78.179319		119.751292		-13.245135		-11.872632		22.930173		
1.524975		0.953726		4.608029		85.646163		-0.014356		0.634814		0.516456		72.367154		2.841651		0.724621		-109.865555		7.552507		-2.946600		15.204391		69.254345		-6.092079		3.762517		-108.598598		9.659424		9.787068		28.693749		-53.813259		0.428824		-0.461783		-2.788163		-4.312004		5.260078		-15.681596		-27.081180		-16.648756		86.461409		142.977084		-0.965554		-2.892259		-32.560037		-21.926626		-21.038091		-36.832511		78.348557		119.918570		-13.216596		-11.666701		23.324098		
1.528283		1.180086		4.679385		85.793947		-0.014745		0.627762		0.515372		73.161017		2.673719		0.552484		-111.071562		7.701044		-2.303077		15.765358		69.999457		-6.102860		4.144829		-109.840653		10.183764		10.208521		29.069992		-54.757746		0.677168		-0.469773		-1.825054		-4.315230		5.225395		-12.819990		-28.066304		-15.119280		86.430405		143.286163		-0.986877		-2.954352		-32.708769		-19.752821		-21.978818		-35.748728		78.498316		120.230709		-13.429856		-11.187168		23.604567		
1.531591		1.395867		4.775288		85.889781		-0.014944		0.620907		0.514211		73.868552		2.556949		0.401363		-112.224840		7.937398		-1.715609		16.371672		70.667516		-6.195693		4.461680		-111.053096		10.711345		10.612348		29.501399		-55.661386		0.861591		-0.448123		-1.034658		-4.290324		5.209315		-9.906676		-29.025727		-13.494117		86.353813		143.680833		-1.004009		-2.920118		-32.928994		-17.578495		-22.947783		-34.622370		78.657291		120.634017		-13.692673		-10.658595		23.904580		
1.534899		1.601283		4.921229		85.878491		-0.014906		0.614382		0.512990		74.455690		2.532307		0.291359		-113.311453		8.277242		-1.014972		16.965466		71.202136		-6.426848		4.680306		-112.220040		11.382411		10.966705		29.969091		-56.560358		0.959774		-0.425940		-0.409392		-4.364700		5.155552		-6.832632		-29.973667		-11.655728		86.194173		144.293980		-1.039405		-2.679950		-33.305425		-15.438886		-23.891704		-33.540103		78.842536		121.241445		-14.044431		-9.997307		24.253546		
1.538207		1.665258		5.014508		85.838890		-0.014791		0.607906		0.511776		75.096944		2.493485		0.276284		-114.377854		8.566471		-0.707427		17.220046		71.740154		-6.658576		4.677900		-113.299510		11.824288		11.047351		30.167412		-57.358714		0.915139		-0.319370		0.218196		-4.337269		5.008080		-3.958494		-30.790741		-10.159808		86.091766		144.729396		-0.856203		-2.656332		-33.441170		-13.135400		-24.926262		-32.298629		78.951045		121.713797		-13.967068		-9.758437		24.545233		
1.541515		1.750075		5.166323		85.734144		-0.014536		0.601649		0.510486		75.609779		2.499998		0.248990		-115.391499		8.982535		-0.167386		17.610546		72.165781		-6.990759		4.646804		-114.371097		12.499961		11.170064		30.484636		-58.152242		0.855964		-0.290768		0.658860		-4.488182		4.876048		-0.867744		-31.681097		-8.250610		85.885456		145.382346		-0.820917		-2.340789		-33.824021		-11.009846		-25.952673		-31.107697		79.185883		122.399107		-14.080446		-9.370850		25.081021		
1.544823		1.749010		5.334771		85.570356		-0.014236		0.595529		0.509111		76.069626		2.502883		0.291381		-116.375859		9.474319		0.418987		18.046520		72.510089		-7.369270		4.435116		-115.408182		13.330286		11.099348		30.879326		-58.867149		0.716754		-0.387691		0.799560		-4.818276		4.749804		2.436042		-32.580169		-5.913967		85.529376		146.102033		-0.946576		-1.581637		-34.555035		-8.962663		-26.940933		-30.007753		79.411377		123.243173		-14.327469		-9.140637		26.225289		
1.548131		1.599823		5.348799		85.558486		-0.014171		0.589110		0.507896		76.754914		2.329849		0.401129		-117.401483		9.752654		0.631491		19.022931		73.072386		-7.505090		4.155287		-116.380474		13.637061		10.898433		32.439495		-59.468357		0.590406		-0.780665		1.510561		-4.887436		5.083744		5.852868		-33.428989		-3.403010		85.183534		146.164277		-0.546132		-0.784189		-37.002910		-7.104628		-28.041752		-28.918587		79.692948		124.032049		-16.177287		-9.487208		31.234900		
1.551439		1.580280		5.348718		85.510399		-0.014196		0.582816		0.506536		77.355060		2.175679		0.310695		-118.341667		10.222044		0.714486		19.128409		73.611472		-7.772982		3.889951		-117.361061		14.300536		10.551732		33.535281		-59.950957		0.566907		-0.730270		1.606257		-5.177350		4.840260		8.928155		-34.273338		-1.468017		84.883018		146.227156		0.174736		-0.574231		-38.561240		-4.762175		-29.053080		-27.321918		79.646825		124.190366		-17.611339		-9.679503		34.472904		
1.554747		1.597256		5.161858		85.524259		-0.014236		0.576224		0.505204		78.158291		1.965633		0.139120		-119.281318		10.751060		0.995652		19.229813		74.403161		-7.989809		3.704710		-118.344490		14.954689		10.102004		34.424650		-60.210397		0.616994		-0.621547		1.724989		-5.458530		4.516274		11.903659		-34.941458		0.321702		84.553124		146.447656		0.593525		-0.072452		-39.880688		-2.416460		-30.053035		-25.670737		79.627106		124.468791		-18.628560		-9.850275		36.923066		
1.558056		1.668228		4.896009		85.642097		-0.014533		0.569465		0.503818		79.039839		1.647460		-0.156812		-120.224136		11.248859		1.110253		19.262101		75.340352		-8.101204		3.595179		-119.360253		15.491263		9.542700		34.694470		-60.347463		0.809897		-0.502648		1.805399		-5.743909		4.225812		14.858509		-35.648089		2.246528		84.158465		146.449360		0.495090		0.488494		-40.452181		-0.093258		-30.961740		-24.089972		79.667607		124.904057		-18.813894		-9.964609		37.510858		
1.561364		1.803461		4.606654		85.795180		-0.014957		0.562750		0.502447		79.927181		1.270170		-0.542751		-121.145994		11.707151		1.073614		19.258547		76.340871		-8.192021		3.532093		-120.376428		15.928449		9.012945		34.941827		-60.475771		1.070655		-0.354966		2.037713		-5.945878		4.046612		17.813638		-36.329076		4.170263		83.751922		146.069638		0.437626		0.801831		-40.975578		2.200391		-31.837381		-22.531338		79.783894		125.229454		-19.085132		-10.016530		38.110578		
1.564672		1.902927		4.348796		85.915961		-0.015403		0.556192		0.501084		80.798444		0.900377		-0.899865		-122.075814		12.152189		0.967088		19.277694		77.282612		-8.309437		3.423055		-121.372971		16.310410		8.623729		35.077992		-60.672471		1.264457		-0.168993		2.504539		-6.011081		3.892305		20.605090		-36.937969		5.717299		83.472764		145.878746		0.573693		0.770566		-41.154015		4.538548		-32.673723		-20.960598		79.983699		125.512587		-19.076168		-10.039783		38.407739		
1.567980		2.188239		4.013533		86.127539		-0.016041		0.549679		0.499725		81.681547		0.429885		-1.510457		-122.928306		12.540424		0.847705		19.274238		78.372699		-8.363836		3.518799		-122.379954		16.697772		7.986494		35.231276		-60.719468		1.697942		0.067489		2.597926		-6.272875		3.675260		23.566063		-37.452478		7.570537		82.980720		145.317484		0.425870		1.072510		-41.426128		6.916522		-33.374836		-19.366139		80.015028		125.727842		-19.255839		-9.693481		38.494730		
1.571288		2.318974		3.782465		86.208203		-0.016480		0.543551		0.498459		82.483713		0.068478		-1.907452		-123.783250		12.936796		0.674249		19.304454		79.265899		-8.507312		3.441650		-123.320558		17.015628		7.663221		35.308512		-60.969761		1.872029		0.269852		3.221453		-6.316686		3.604526		26.343776		-37.902292		9.015450		82.717572		145.144464		0.592179		0.964698		-41.372454		9.296628		-34.122832		-17.840602		80.251589		125.950683		-19.079623		-9.505982		38.416838		
1.574596		2.674133		3.572487		86.336894		-0.016952		0.537776		0.497266		83.151508		-0.334656		-2.599769		-124.529774		13.245805		0.446806		19.306131		80.174186		-8.649671		3.625582		-124.246777		17.311168		7.098897		35.448718		-61.199818		2.277770		0.518523		3.461603		-6.607027		3.519805		29.425156		-38.236663		10.968025		82.218106		144.460743		0.338080		1.436280		-41.414227		11.632362		-34.754584		-16.375839		80.398445		125.996105		-19.102707		-8.644279		37.798781		
1.577904		2.783587		3.390491		86.321839		-0.017153		0.532273		0.496188		83.837863		-0.605895		-2.966971		-125.287976		13.612462		0.259410		19.339813		80.941749		-8.925596		3.513334		-125.080672		17.581731		6.892454		35.532507		-61.554784		2.346137		0.670496		4.269614		-6.634934		3.559469		32.221338		-38.445926		12.318545		81.980158		144.312039		0.477370		1.390899		-41.235175		13.977663		-35.436849		-15.042500		80.702889		126.135927		-18.797423		-8.340123		37.363255		
1.581212		2.904726		3.266855		86.232742		-0.017211		0.527238		0.495217		84.403517		-0.808432		-3.341781		-125.970311		13.948705		0.094036		19.377433		81.592825		-9.254197		3.432647		-125.851713		17.902524		6.634156		35.600547		-61.971271		2.357753		0.837577		4.947132		-6.730776		3.577956		35.056124		-38.537180		13.645148		81.701947		144.303720		0.716894		1.407105		-41.002134		16.375667		-36.063735		-13.754154		80.959190		126.273634		-18.443041		-7.943912		36.809998		
1.584520		3.171868		3.296173		86.076642		-0.017083		0.522866		0.494305		84.703587		-0.890617		-3.866353		-126.547420		14.224496		-0.127426		19.399308		82.049141		-9.709995		3.512155		-126.588143		18.221364		6.313911		35.745967		-62.566061		2.417404		1.062668		5.517838		-6.947019		3.627033		38.125759		-38.548523		15.363416		81.339083		144.016583		0.641355		2.046645		-40.768899		18.662240		-36.629856		-12.604972		81.316315		126.141137		-18.111380		-6.944289		35.225920		
1.587828		3.251156		3.111255		85.948502		-0.016999		0.518114		0.493447		85.301112		-1.021175		-4.155227		-127.178967		14.572422		-0.260008		19.456681		82.716508		-10.085387		3.423313		-127.268219		18.495187		6.214739		35.857969		-62.966742		2.344723		1.189895		6.424014		-6.917622		3.655439		40.799588		-38.453224		16.436381		81.144237		143.996622		0.773361		2.105179		-40.498169		20.939737		-37.201994		-11.554774		81.733397		126.167582		-17.595487		-6.697384		34.181604		
